<svg width="50" height="49" xmlns="http://www.w3.org/2000/svg" xmlns:xlink="http://www.w3.org/1999/xlink" xml:space="preserve" overflow="hidden"><g transform="translate(-982 -359)"><path d="M49 24.649C49 36.8766 40.0289 47.0135 28.3179 48.853L28.3179 31.7785 34.0121 31.7785 35.0963 24.7144 28.3179 24.7144 28.3179 20.1308C28.3179 18.1974 29.2653 16.315 32.2992 16.315L35.38 16.315 35.38 10.3002C35.38 10.3002 32.583 9.82246 29.9104 9.82246 24.3285 9.82246 20.6821 13.2055 20.6821 19.3285L20.6821 24.7123 14.4775 24.7123 14.4775 31.7765 20.6821 31.7765 20.6821 48.851C8.97313 47.0094 0 36.8745 0 24.649 0 11.1189 10.9699 0.149042 24.5 0.149042 38.0301 0.149042 49 11.1169 49 24.649Z" fill="#ECF0F1" transform="matrix(1.02041 0 0 1 982 359)"/></g></svg>