<svg width="22" height="22" xmlns="http://www.w3.org/2000/svg" xmlns:xlink="http://www.w3.org/1999/xlink" xml:space="preserve" overflow="hidden"><defs><clipPath id="clip0"><rect x="30" y="215" width="22" height="22"/></clipPath></defs><g clip-path="url(#clip0)" transform="translate(-30 -215)"><path d="M41 215.271C34.9253 215.271 30 220.196 30 226.271 30 231.132 33.1515 235.255 37.5222 236.709 38.0722 236.811 38.2738 236.471 38.2738 236.18 38.2738 235.918 38.2637 235.052 38.2592 234.133 35.1993 234.798 34.5531 232.835 34.5531 232.835 34.0526 231.563 33.3321 231.225 33.3321 231.225 32.3338 230.542 33.4072 230.557 33.4072 230.557 34.5118 230.635 35.093 231.691 35.093 231.691 36.0738 233.372 37.6661 232.886 38.294 232.605 38.393 231.893 38.6781 231.408 38.9925 231.133 36.5496 230.856 33.9811 229.912 33.9811 225.697 33.9811 224.497 34.411 223.515 35.115 222.745 35.0004 222.467 34.6237 221.349 35.2213 219.834 35.2213 219.834 36.1453 219.538 38.2472 220.961 39.1245 220.717 40.065 220.595 41 220.591 41.935 220.595 42.8764 220.717 43.7555 220.961 45.8547 219.538 46.7777 219.834 46.7777 219.834 47.3763 221.349 46.9996 222.467 46.8859 222.745 47.5908 223.515 48.018 224.497 48.018 225.697 48.018 229.922 45.4449 230.853 42.9956 231.125 43.3898 231.466 43.7418 232.136 43.7418 233.162 43.7418 234.634 43.7289 235.818 43.7289 236.18 43.7289 236.473 43.9269 236.817 44.4842 236.708 48.8531 235.252 52.0009 231.131 52.0009 226.272 52 220.197 47.0748 215.271 41 215.271Z" fill="#ECF0F1" fill-rule="evenodd"/><path d="M34.1663 231.066C34.1424 231.12 34.0563 231.137 33.9774 231.099 33.8977 231.064 33.8527 230.988 33.8784 230.934 33.9022 230.878 33.9884 230.863 34.0682 230.9 34.1479 230.935 34.1937 231.01 34.1663 231.066L34.1663 231.066Z" fill="#ECF0F1"/><path d="M34.6118 231.562C34.5595 231.611 34.4568 231.588 34.3872 231.512 34.3148 231.435 34.3019 231.332 34.3551 231.284 34.4092 231.235 34.5082 231.258 34.5806 231.335 34.653 231.411 34.6667 231.513 34.6118 231.562L34.6118 231.562Z" fill="#ECF0F1"/><path d="M35.0453 232.196C34.9775 232.242 34.8675 232.199 34.7997 232.101 34.7318 232.003 34.7318 231.886 34.8015 231.839 34.8693 231.792 34.9784 231.835 35.0472 231.932 35.1141 232.031 35.1141 232.148 35.0453 232.196L35.0453 232.196Z" fill="#ECF0F1"/><path d="M35.6393 232.808C35.5788 232.875 35.4505 232.857 35.357 232.766 35.2607 232.677 35.2342 232.551 35.2947 232.484 35.3561 232.418 35.4853 232.437 35.5798 232.527 35.6751 232.616 35.7035 232.742 35.6393 232.808L35.6393 232.808Z" fill="#ECF0F1"/><path d="M36.4598 233.163C36.4332 233.249 36.3094 233.288 36.1847 233.252 36.0601 233.214 35.9785 233.113 36.0042 233.026 36.0298 232.939 36.1545 232.899 36.2801 232.938 36.4038 232.975 36.4854 233.076 36.4598 233.163L36.4598 233.163Z" fill="#ECF0F1"/><path d="M37.3599 233.229C37.3627 233.32 37.2572 233.395 37.1262 233.397 36.9951 233.399 36.8878 233.326 36.8869 233.237 36.8869 233.145 36.9905 233.071 37.1216 233.068 37.2527 233.066 37.3599 233.139 37.3599 233.229L37.3599 233.229Z" fill="#ECF0F1"/><path d="M38.1978 233.087C38.2133 233.175 38.1226 233.266 37.9924 233.29 37.865 233.314 37.7467 233.259 37.7303 233.171 37.7147 233.08 37.8073 232.99 37.9347 232.966 38.0639 232.943 38.1813 232.996 38.1978 233.087L38.1978 233.087Z" fill="#ECF0F1"/></g></svg>