<svg width="49" height="50" xmlns="http://www.w3.org/2000/svg" xmlns:xlink="http://www.w3.org/1999/xlink" xml:space="preserve" overflow="hidden"><g transform="translate(-749 -359)"><path d="M24.5 4.41408C31.0415 4.41408 31.8173 4.43858 34.4 4.557 37.0705 4.6795 39.8207 5.28792 41.7664 7.23363 43.7305 9.19771 44.3205 11.9213 44.443 14.6 44.5614 17.1827 44.5859 17.9585 44.5859 24.5 44.5859 31.0415 44.5614 31.8173 44.443 34.4 44.3225 37.0563 43.6998 39.8329 41.7664 41.7664 39.8023 43.7305 37.0808 44.3205 34.4 44.443 31.8173 44.5614 31.0415 44.5859 24.5 44.5859 17.9585 44.5859 17.1827 44.5614 14.6 44.443 11.9642 44.3225 9.15075 43.6855 7.23363 41.7664 5.27975 39.8125 4.6795 37.0624 4.557 34.4 4.43858 31.8173 4.41408 31.0415 4.41408 24.5 4.41408 17.9585 4.43858 17.1827 4.557 14.6 4.67746 11.954 5.30629 9.16096 7.23363 7.23363 9.19362 5.27362 11.9274 4.6795 14.6 4.557 17.1827 4.43858 17.9585 4.41408 24.5 4.41408M24.5 0C17.8462 0 17.0112 0.0285833 14.3978 0.147 10.6105 0.320542 6.84979 1.37404 4.11192 4.11192 1.36383 6.86 0.320542 10.6126 0.147 14.3978 0.0285833 17.0112 0 17.8462 0 24.5 0 31.1538 0.0285833 31.9888 0.147 34.6022 0.320542 38.3854 1.37813 42.1563 4.11192 44.8881 6.85796 47.6341 10.6167 48.6795 14.3978 48.853 17.0112 48.9714 17.8462 49 24.5 49 31.1538 49 31.9888 48.9714 34.6022 48.853 38.3874 48.6795 42.1523 47.6239 44.8881 44.8881 47.6382 42.138 48.6795 38.3874 48.853 34.6022 48.9714 31.9888 49 31.1538 49 24.5 49 17.8462 48.9714 17.0112 48.853 14.3978 48.6795 10.6105 47.6239 6.84775 44.8881 4.11192 42.1461 1.36996 38.3772 0.3185 34.6022 0.147 31.9888 0.0285833 31.1538 0 24.5 0Z" fill="#ECF0F1" transform="matrix(1 0 0 1.02041 749 359)"/><path d="M24.5 11.9193C17.5522 11.9193 11.9193 17.5522 11.9193 24.5 11.9193 31.4478 17.5522 37.0808 24.5 37.0808 31.4478 37.0808 37.0808 31.4478 37.0808 24.5 37.0808 17.5522 31.4478 11.9193 24.5 11.9193ZM24.5 32.6667C19.99 32.6667 16.3333 29.01 16.3333 24.5 16.3333 19.99 19.99 16.3333 24.5 16.3333 29.01 16.3333 32.6667 19.99 32.6667 24.5 32.6667 29.01 29.01 32.6667 24.5 32.6667Z" fill="#ECF0F1" transform="matrix(1 0 0 1.02041 749 359)"/><path d="M40.5189 11.4211C40.5189 13.0448 39.2026 14.3611 37.5789 14.3611 35.9552 14.3611 34.6389 13.0448 34.6389 11.4211 34.6389 9.79737 35.9552 8.48108 37.5789 8.48108 39.2026 8.48108 40.5189 9.79737 40.5189 11.4211Z" fill="#ECF0F1" transform="matrix(1 0 0 1.02041 749 359)"/></g></svg>