<svg width="55" height="55" xmlns="http://www.w3.org/2000/svg" xmlns:xlink="http://www.w3.org/1999/xlink" xml:space="preserve" overflow="hidden"><defs><clipPath id="clip0"><rect x="510" y="360" width="55" height="55"/></clipPath></defs><g clip-path="url(#clip0)" transform="translate(-510 -360)"><path d="M562.713 409.463 563.233 409.463 562.236 407.955 562.236 407.955C562.846 407.955 563.169 407.568 563.174 407.094 563.174 407.075 563.174 407.055 563.171 407.036 563.171 406.39 562.782 406.081 561.982 406.081L560.689 406.081 560.689 409.463 561.175 409.463 561.175 407.99 561.773 407.99 562.713 409.463ZM561.739 407.607 561.175 407.607 561.175 406.464 561.89 406.464C562.259 406.464 562.681 406.523 562.681 407.007 562.681 407.561 562.255 407.607 561.737 407.607" fill="#ECF0F1"/><path d="M549.625 403.709 542.734 403.709 542.734 392.918C542.734 390.344 542.688 387.033 539.15 387.033 535.561 387.033 535.011 389.835 535.011 392.732L535.011 403.709 528.122 403.709 528.122 381.516 534.739 381.516 534.739 384.548 534.83 384.548C536.18 382.243 538.687 380.866 541.357 380.964 548.342 380.964 549.628 385.559 549.628 391.533L549.625 403.709ZM520.347 378.482C518.138 378.482 516.348 376.693 516.348 374.483 516.348 372.274 518.138 370.484 520.347 370.484 522.556 370.484 524.346 372.274 524.346 374.483 524.346 376.693 522.556 378.482 520.347 378.482L520.347 378.482M523.791 403.709 516.893 403.709 516.893 381.516 523.791 381.516 523.791 403.709ZM553.06 364.086 513.431 364.086C511.558 364.065 510.023 365.566 510 367.439L510 407.231C510.023 409.106 511.558 410.607 513.431 410.586L553.06 410.586C554.937 410.609 556.48 409.108 556.505 407.231L556.505 367.436C556.477 365.56 554.935 364.059 553.06 364.084" fill="#ECF0F1"/><path d="M561.799 404.575C560.048 404.591 558.641 406.026 558.659 407.777 558.675 409.527 560.11 410.935 561.86 410.916 563.611 410.9 565.018 409.466 565 407.715 564.984 405.987 563.586 404.591 561.86 404.575L561.799 404.575M561.872 410.552C560.336 410.577 558.998 409.356 558.973 407.82 558.948 406.285 560.171 405.02 561.707 404.995 563.242 404.969 564.507 406.193 564.532 407.729 564.532 407.745 564.532 407.758 564.532 407.774 564.565 409.275 563.373 410.52 561.872 410.552L561.801 410.552" fill="#ECF0F1"/></g></svg>