<svg width="22" height="22" xmlns="http://www.w3.org/2000/svg" xmlns:xlink="http://www.w3.org/1999/xlink" xml:space="preserve" overflow="hidden"><defs><clipPath id="clip0"><rect x="30" y="79" width="22" height="22"/></clipPath></defs><g clip-path="url(#clip0)" transform="translate(-30 -79)"><path d="M51.5352 89.0989C51.0888 88.4994 50.4041 88.1548 49.6561 88.1548L49.25 88.1548 49.25 86.3333C49.25 83.8061 47.1939 81.75 44.6667 81.75L40.032 81.75C39.8908 81.75 39.7478 81.7161 39.6222 81.6537L36.7302 80.2073C36.3507 80.0175 35.9253 79.9176 35.5 79.9176L33.6667 79.9176C31.6445 79.9167 30 81.5612 30 83.5833L30 95.5C30 98.0273 32.0561 100.083 34.5833 100.083L46.0948 100.083C48.1353 100.083 49.899 98.7707 50.4967 96.7769L51.901 91.1706C52.1155 90.4538 51.9826 89.6993 51.5362 89.0989ZM31.8333 95.5 31.8333 83.5833C31.8333 82.5723 32.6556 81.75 33.6667 81.75L35.5 81.75C35.6412 81.75 35.7842 81.7839 35.9098 81.8463L38.8018 83.2927C39.1813 83.4825 39.6067 83.5824 40.032 83.5824L44.6667 83.5824C46.1828 83.5824 47.4167 84.8163 47.4167 86.3324L47.4167 88.1538 37.8971 88.1538C36.3387 88.1538 34.9473 89.1429 34.4238 90.6472L32.4163 97.1903C32.0515 96.7237 31.8333 96.1362 31.8333 95.4991ZM50.1337 90.6848 48.7293 96.2902C48.3773 97.4626 47.3186 98.25 46.0948 98.25L34.5833 98.25C34.3927 98.25 34.2066 98.2308 34.0269 98.1932L36.1664 91.2182C36.4222 90.4822 37.1188 89.9881 37.898 89.9881L49.657 89.9881C49.8788 89.9881 50.0081 90.1164 50.0649 90.1934 50.1217 90.2704 50.2079 90.4308 50.1337 90.6848Z" fill="#ECF0F1"/></g></svg>