<svg width="22" height="22" xmlns="http://www.w3.org/2000/svg" xmlns:xlink="http://www.w3.org/1999/xlink" xml:space="preserve" overflow="hidden"><g transform="translate(-30 -147)"><path d="M38.25 158C41.2876 158 43.75 155.538 43.75 152.5 43.75 149.462 41.2876 147 38.25 147 35.2124 147 32.75 149.462 32.75 152.5 32.753 155.536 35.2137 157.997 38.25 158ZM38.25 148.833C40.275 148.833 41.9167 150.475 41.9167 152.5 41.9167 154.525 40.275 156.167 38.25 156.167 36.225 156.167 34.5833 154.525 34.5833 152.5 34.5833 150.475 36.225 148.833 38.25 148.833Z" fill="#ECF0F1"/><path d="M49.25 156.167 49.25 153.417 47.4167 153.417 47.4167 156.167 44.6667 156.167 44.6667 158 47.4167 158 47.4167 160.75 49.25 160.75 49.25 158 52 158 52 156.167 49.25 156.167Z" fill="#ECF0F1"/><path d="M41.9561 159.833 34.5439 159.833C32.0356 159.836 30.003 161.869 30 164.377L30 169 31.8333 169 31.8333 164.377C31.8348 162.881 33.0475 161.668 34.5439 161.667L41.9561 161.667C43.4524 161.668 44.6651 162.881 44.6667 164.377L44.6667 169 46.5 169 46.5 164.377C46.497 161.869 44.4644 159.836 41.9561 159.833Z" fill="#ECF0F1"/></g></svg>