<svg width="22" height="22" xmlns="http://www.w3.org/2000/svg" xmlns:xlink="http://www.w3.org/1999/xlink" xml:space="preserve" overflow="hidden"><g transform="translate(-30 -283)"><path d="M37.3347 302.25 33.1263 302.25C32.9194 302.249 32.7518 302.082 32.7514 301.875L32.7514 286.125C32.7519 285.918 32.9194 285.75 33.1263 285.75L37.3347 285.75C38.0941 285.75 38.7097 285.134 38.7097 284.375 38.7097 283.616 38.0941 283 37.3347 283L33.1263 283C31.4013 283.002 30.0034 284.4 30.0014 286.125L30.0014 301.875C30.0034 303.6 31.4013 304.998 33.1263 305L37.3347 305C38.0941 305 38.7097 304.384 38.7097 303.625 38.7097 302.866 38.0941 302.25 37.3347 302.25Z" fill="#ECF0F1"/><path d="M50.7932 291.083 47.2347 287.527C46.6975 286.991 45.8269 286.991 45.29 287.528 44.7531 288.065 44.7533 288.936 45.2904 289.473L48.4181 292.599 35.9597 292.625C35.2003 292.625 34.5847 293.241 34.5847 294 34.5847 294.759 35.2003 295.375 35.9597 295.375L35.9597 295.375 48.4685 295.352 45.2904 298.53C44.773 299.086 44.8042 299.956 45.36 300.474 45.8883 300.965 46.7069 300.965 47.2347 300.473L50.7904 296.917C52.4014 295.306 52.4014 292.694 50.7905 291.083 50.7905 291.083 50.7904 291.083 50.7904 291.083L50.7932 291.083Z" fill="#ECF0F1"/></g></svg>